<mxfile host="app.diagrams.net" modified="2024-05-16T02:32:14.153Z" agent="Mozilla/5.0 (Windows NT 10.0; Win64; x64) AppleWebKit/537.36 (KHTML, like Gecko) Chrome/123.0.0.0 Safari/537.36" etag="3M-Qzdk9UBZxC7w1d1a0" version="24.4.2" type="github">
  <diagram id="C5RBs43oDa-KdzZeNtuy" name="Page-1">
    <mxGraphModel dx="1744" dy="909" grid="1" gridSize="10" guides="1" tooltips="1" connect="1" arrows="1" fold="1" page="1" pageScale="1" pageWidth="827" pageHeight="1169" math="0" shadow="0">
      <root>
        <mxCell id="WIyWlLk6GJQsqaUBKTNV-0" />
        <mxCell id="WIyWlLk6GJQsqaUBKTNV-1" parent="WIyWlLk6GJQsqaUBKTNV-0" />
        <mxCell id="R8mopDZ6BEZe_VBbdvk4-1" value="Service.DdReport" style="rounded=0;whiteSpace=wrap;html=1;" vertex="1" parent="WIyWlLk6GJQsqaUBKTNV-1">
          <mxGeometry x="130" y="230" width="120" height="50" as="geometry" />
        </mxCell>
        <mxCell id="R8mopDZ6BEZe_VBbdvk4-2" value="Service.Delivarable" style="rounded=0;whiteSpace=wrap;html=1;" vertex="1" parent="WIyWlLk6GJQsqaUBKTNV-1">
          <mxGeometry x="130" y="520" width="120" height="60" as="geometry" />
        </mxCell>
        <mxCell id="R8mopDZ6BEZe_VBbdvk4-5" value="Service.WellConfig" style="rounded=0;whiteSpace=wrap;html=1;" vertex="1" parent="WIyWlLk6GJQsqaUBKTNV-1">
          <mxGeometry x="560" width="120" height="60" as="geometry" />
        </mxCell>
        <mxCell id="R8mopDZ6BEZe_VBbdvk4-6" value="Service.Package" style="rounded=0;whiteSpace=wrap;html=1;" vertex="1" parent="WIyWlLk6GJQsqaUBKTNV-1">
          <mxGeometry x="560" y="122" width="120" height="60" as="geometry" />
        </mxCell>
        <mxCell id="R8mopDZ6BEZe_VBbdvk4-8" value="" style="endArrow=classic;html=1;rounded=0;exitX=1;exitY=0.5;exitDx=0;exitDy=0;entryX=0;entryY=0.5;entryDx=0;entryDy=0;" edge="1" parent="WIyWlLk6GJQsqaUBKTNV-1" source="R8mopDZ6BEZe_VBbdvk4-1" target="R8mopDZ6BEZe_VBbdvk4-6">
          <mxGeometry width="50" height="50" relative="1" as="geometry">
            <mxPoint x="390" y="350" as="sourcePoint" />
            <mxPoint x="360" y="250" as="targetPoint" />
            <Array as="points">
              <mxPoint x="400" y="260" />
              <mxPoint x="400" y="150" />
            </Array>
          </mxGeometry>
        </mxCell>
        <mxCell id="R8mopDZ6BEZe_VBbdvk4-9" value="" style="endArrow=classic;html=1;rounded=0;" edge="1" parent="WIyWlLk6GJQsqaUBKTNV-1">
          <mxGeometry width="50" height="50" relative="1" as="geometry">
            <mxPoint x="260" y="255" as="sourcePoint" />
            <mxPoint x="550" y="40" as="targetPoint" />
            <Array as="points">
              <mxPoint x="400" y="260" />
              <mxPoint x="400" y="40" />
            </Array>
          </mxGeometry>
        </mxCell>
        <mxCell id="R8mopDZ6BEZe_VBbdvk4-10" value="/runsummaries?wellId={wellId}" style="edgeLabel;html=1;align=center;verticalAlign=middle;resizable=0;points=[];" vertex="1" connectable="0" parent="R8mopDZ6BEZe_VBbdvk4-9">
          <mxGeometry x="-0.0269" y="-2" relative="1" as="geometry">
            <mxPoint as="offset" />
          </mxGeometry>
        </mxCell>
        <mxCell id="R8mopDZ6BEZe_VBbdvk4-11" value="Core.Service.WellboreGeometry-2" style="rounded=0;whiteSpace=wrap;html=1;" vertex="1" parent="WIyWlLk6GJQsqaUBKTNV-1">
          <mxGeometry x="560" y="220" width="220" height="100" as="geometry" />
        </mxCell>
        <mxCell id="R8mopDZ6BEZe_VBbdvk4-12" value="/graphql" style="rounded=0;whiteSpace=wrap;html=1;" vertex="1" parent="WIyWlLk6GJQsqaUBKTNV-1">
          <mxGeometry x="600" y="290" width="120" height="20" as="geometry" />
        </mxCell>
        <mxCell id="R8mopDZ6BEZe_VBbdvk4-13" value="" style="endArrow=classic;html=1;rounded=0;exitX=1;exitY=0.5;exitDx=0;exitDy=0;" edge="1" parent="WIyWlLk6GJQsqaUBKTNV-1" source="R8mopDZ6BEZe_VBbdvk4-1" target="R8mopDZ6BEZe_VBbdvk4-11">
          <mxGeometry width="50" height="50" relative="1" as="geometry">
            <mxPoint x="390" y="250" as="sourcePoint" />
            <mxPoint x="440" y="200" as="targetPoint" />
          </mxGeometry>
        </mxCell>
        <mxCell id="R8mopDZ6BEZe_VBbdvk4-15" value="query WellboreGeometryQuery" style="edgeLabel;html=1;align=center;verticalAlign=middle;resizable=0;points=[];" vertex="1" connectable="0" parent="R8mopDZ6BEZe_VBbdvk4-13">
          <mxGeometry x="-0.0286" y="-1" relative="1" as="geometry">
            <mxPoint as="offset" />
          </mxGeometry>
        </mxCell>
        <mxCell id="R8mopDZ6BEZe_VBbdvk4-16" value="RO.Service.SteeringAdvisor-1" style="rounded=0;whiteSpace=wrap;html=1;" vertex="1" parent="WIyWlLk6GJQsqaUBKTNV-1">
          <mxGeometry x="555" y="350" width="240" height="175" as="geometry" />
        </mxCell>
        <mxCell id="R8mopDZ6BEZe_VBbdvk4-17" value="/steering/GetSteeringSheet" style="rounded=0;whiteSpace=wrap;html=1;" vertex="1" parent="WIyWlLk6GJQsqaUBKTNV-1">
          <mxGeometry x="585" y="455" width="170" height="20" as="geometry" />
        </mxCell>
        <mxCell id="R8mopDZ6BEZe_VBbdvk4-18" value="/steering/GetSteeringSurveys" style="rounded=0;whiteSpace=wrap;html=1;" vertex="1" parent="WIyWlLk6GJQsqaUBKTNV-1">
          <mxGeometry x="585" y="490" width="170" height="20" as="geometry" />
        </mxCell>
        <mxCell id="R8mopDZ6BEZe_VBbdvk4-19" value="" style="endArrow=classic;html=1;rounded=0;entryX=-0.001;entryY=0.299;entryDx=0;entryDy=0;entryPerimeter=0;" edge="1" parent="WIyWlLk6GJQsqaUBKTNV-1" target="R8mopDZ6BEZe_VBbdvk4-16">
          <mxGeometry width="50" height="50" relative="1" as="geometry">
            <mxPoint x="250" y="260" as="sourcePoint" />
            <mxPoint x="440" y="500" as="targetPoint" />
            <Array as="points">
              <mxPoint x="400" y="260" />
              <mxPoint x="400" y="402" />
            </Array>
          </mxGeometry>
        </mxCell>
        <mxCell id="R8mopDZ6BEZe_VBbdvk4-20" value="Service.LogData" style="rounded=0;whiteSpace=wrap;html=1;" vertex="1" parent="WIyWlLk6GJQsqaUBKTNV-1">
          <mxGeometry x="550" y="690" width="250" height="220" as="geometry" />
        </mxCell>
        <mxCell id="R8mopDZ6BEZe_VBbdvk4-21" value="/trajectory/projectiontobit" style="rounded=0;whiteSpace=wrap;html=1;" vertex="1" parent="WIyWlLk6GJQsqaUBKTNV-1">
          <mxGeometry x="577.5" y="810" width="185" height="30" as="geometry" />
        </mxCell>
        <mxCell id="R8mopDZ6BEZe_VBbdvk4-22" value="Core.Service.DrillingDrillstring-1" style="rounded=0;whiteSpace=wrap;html=1;" vertex="1" parent="WIyWlLk6GJQsqaUBKTNV-1">
          <mxGeometry x="555" y="540" width="245" height="120" as="geometry" />
        </mxCell>
        <mxCell id="R8mopDZ6BEZe_VBbdvk4-23" value="" style="endArrow=classic;html=1;rounded=0;entryX=0;entryY=0.5;entryDx=0;entryDy=0;exitX=1;exitY=0.75;exitDx=0;exitDy=0;" edge="1" parent="WIyWlLk6GJQsqaUBKTNV-1" source="R8mopDZ6BEZe_VBbdvk4-1" target="R8mopDZ6BEZe_VBbdvk4-22">
          <mxGeometry width="50" height="50" relative="1" as="geometry">
            <mxPoint x="230" y="290" as="sourcePoint" />
            <mxPoint x="440" y="500" as="targetPoint" />
            <Array as="points">
              <mxPoint x="400" y="260" />
              <mxPoint x="400" y="600" />
            </Array>
          </mxGeometry>
        </mxCell>
        <mxCell id="R8mopDZ6BEZe_VBbdvk4-24" value="/DrillString/GetBhaForBhaRun" style="rounded=0;whiteSpace=wrap;html=1;" vertex="1" parent="WIyWlLk6GJQsqaUBKTNV-1">
          <mxGeometry x="590" y="860" width="170" height="20" as="geometry" />
        </mxCell>
        <mxCell id="R8mopDZ6BEZe_VBbdvk4-25" value="" style="endArrow=classic;html=1;rounded=0;exitX=0.5;exitY=0;exitDx=0;exitDy=0;" edge="1" parent="WIyWlLk6GJQsqaUBKTNV-1" source="R8mopDZ6BEZe_VBbdvk4-6">
          <mxGeometry width="50" height="50" relative="1" as="geometry">
            <mxPoint x="570" y="110" as="sourcePoint" />
            <mxPoint x="620" y="60" as="targetPoint" />
          </mxGeometry>
        </mxCell>
        <mxCell id="R8mopDZ6BEZe_VBbdvk4-26" style="edgeStyle=orthogonalEdgeStyle;rounded=0;orthogonalLoop=1;jettySize=auto;html=1;entryX=0.5;entryY=0;entryDx=0;entryDy=0;" edge="1" parent="WIyWlLk6GJQsqaUBKTNV-1" source="R8mopDZ6BEZe_VBbdvk4-1" target="R8mopDZ6BEZe_VBbdvk4-2">
          <mxGeometry relative="1" as="geometry" />
        </mxCell>
        <mxCell id="R8mopDZ6BEZe_VBbdvk4-28" value="/DrillString/GetBhaForBhaRun" style="rounded=0;whiteSpace=wrap;html=1;" vertex="1" parent="WIyWlLk6GJQsqaUBKTNV-1">
          <mxGeometry x="577.5" y="620" width="202.5" height="30" as="geometry" />
        </mxCell>
        <mxCell id="R8mopDZ6BEZe_VBbdvk4-29" value="" style="endArrow=classic;html=1;rounded=0;entryX=0.013;entryY=0.671;entryDx=0;entryDy=0;entryPerimeter=0;" edge="1" parent="WIyWlLk6GJQsqaUBKTNV-1" target="R8mopDZ6BEZe_VBbdvk4-20">
          <mxGeometry width="50" height="50" relative="1" as="geometry">
            <mxPoint x="400" y="600" as="sourcePoint" />
            <mxPoint x="350" y="600" as="targetPoint" />
            <Array as="points">
              <mxPoint x="400" y="838" />
            </Array>
          </mxGeometry>
        </mxCell>
      </root>
    </mxGraphModel>
  </diagram>
</mxfile>
